<svg viewBox="-518 520.1 161.2 160.9">
	<path d="M-513.2,600.6A75.8,75.8 0,1,1 -361.6,600.6A75.8,75.8 0,1,1 -513.2,600.6" length="477"/>

	<g id="text-top">
		<path d="M-497.2,600.5A59.8,59.8 0,1,1 -377.59999999999997,600.5A59.8,59.8 0,1,1 -497.2,600.5" length="376"/>
		<path d="M-502.3,575.4l0.6-1.4l7.7,3.2l1-2.3l1.3,0.5l-1.6,3.7L-502.3,575.4z" length="28"/>
		<path d="M-497.2,569.6c-1.4-0.8-1.7-1.9-1-3.2c0.7-1.3,1.9-1.6,3.3-0.8l4.4,2.5c1.4,0.8,1.7,1.9,1,3.2c-0.7,1.3-1.9,1.6-3.3,0.8   L-497.2,569.6z M-491.9,570.8c0.6,0.3,1,0.2,1.2-0.2c0.2-0.4,0.2-0.8-0.4-1.2l-4.6-2.6c-0.6-0.3-1-0.2-1.2,0.2   c-0.2,0.4-0.2,0.8,0.4,1.2L-491.9,570.8z" length="42"/>
		<path d="M-487.1,562.4l-4.9-5l1.3-1.7l7.7,5.9l-0.9,1.2l-5.6-4.3l4.9,5.1l-0.9,1.1l-6.2-3.3l5.5,4.2l-0.8,1.1l-7.7-5.9l1.3-1.7   L-487.1,562.4z" length="71"/>
		<path d="M-487.7,552.4l1.7-1.7c1.1-1.1,2.2-1,3.3,0.1l3.4,3.5c1.1,1.1,1.1,2.2,0.1,3.3l-1.7,1.7L-487.7,552.4z M-485.7,552.3l4.9,5   l0.6-0.6c0.3-0.3,0.4-0.7-0.1-1.2l-3.5-3.6c-0.5-0.5-0.9-0.5-1.2-0.1L-485.7,552.3z" length="44"/>
		<path d="M-481.3,546.6l1.2-1l6.1,7.6l-1.2,1L-481.3,546.6z" length="23"/>
		<path d="M-472.8,540.7l1.3-0.8l4.9,8.5l-1.3,0.8L-472.8,540.7z" length="23"/>
		<path d="M-465.5,539.9l2.9,6.5l-1.3,0.6l-4-8.9l1.8-0.8l3.8,4.7l-2.4-5.3l1.2-0.6l4,8.9l-1.4,0.6L-465.5,539.9z" length="53"/>
		<path d="M-459.4,534.5l2.3-0.7c1.5-0.4,2.4,0.2,2.9,1.7l1.4,4.7c0.4,1.5,0,2.5-1.5,3l-2.3,0.7L-459.4,534.5z M-457.6,535.4l2,6.7   l0.8-0.2c0.5-0.1,0.7-0.5,0.5-1.1l-1.4-4.9c-0.2-0.7-0.6-0.8-1-0.7L-457.6,535.4z" length="44"/>
		<path d="M-451.1,532.3l1.5-0.3l1.8,9.6l-1.5,0.3L-451.1,532.3z" length="23"/>
		<path d="M-439.8,540.7l-1.5,0.1l-0.4-1.7l-1.9,0.2l-0.1,1.8l-1.4,0.1l0.7-9.8l2.2-0.2L-439.8,540.7z M-443.5,537.9l1.5-0.1   l-1.1-4.9L-443.5,537.9z" length="42"/>
		<path d="M-430.7,535.4l2.1,0.2l-0.2,1.4l-2.1-0.2l-0.3,2.8l2.6,0.3l-0.2,1.4l-4.2-0.5l1.1-9.7l4.2,0.5l-0.2,1.4l-2.6-0.3   L-430.7,535.4z" length="38"/>
		<path d="M-421.6,532.7c1.5,0.3,2,1.4,1.6,2.9l-0.1,0.3l-1.4-0.3l0.1-0.4c0.2-0.7-0.1-1-0.5-1.1c-0.5-0.1-0.8,0.1-1,0.8   c-0.5,2,2.4,3,1.7,5.7c-0.4,1.5-1.3,2.2-2.8,1.9c-1.5-0.3-2-1.4-1.7-2.9l0.1-0.6l1.4,0.3l-0.2,0.7c-0.2,0.7,0.1,1,0.6,1.1   c0.5,0.1,0.8-0.1,1-0.7c0.5-2-2.4-3-1.7-5.7C-424,533-423.1,532.3-421.6,532.7z" length="39"/>
		<path d="M-416.1,534.3l4.5,1.6l-0.5,1.3l-1.5-0.5l-2.8,7.9l-1.4-0.5l2.8-7.9l-1.5-0.5L-416.1,534.3z" length="30"/>
		<path d="M-411.2,545.1l-0.6,1.3l-1.3-0.6l0.6-1.3L-411.2,545.1z" length="6"/>
		<path d="M-398.8,544.3c-0.4-0.3-0.8-0.2-1.2,0.3l-0.6,0.9l-1.2-0.8l0.5-0.8c0.9-1.3,2-1.6,3.3-0.7c1.2,0.9,1.4,2,0.5,3.3   c-1.7,2.5-4.9,1.7-5.8,3.1c0,0.1-0.1,0.1-0.1,0.2l2.4,1.6l-0.8,1.1l-3.7-2.5l0.7-1c1.6-2.4,4.4-1,6-3.4   C-398.3,544.9-398.4,544.5-398.8,544.3z" length="39"/>
		<path d="M-394.6,548.7c1-1.2,2.2-1.3,3.4-0.3c1.1,1,1.1,2.2,0.1,3.4l-3.4,3.8c-1,1.2-2.2,1.3-3.4,0.3c-1.1-1-1.1-2.2-0.1-3.4   L-394.6,548.7z M-396.9,553.6c-0.5,0.5-0.4,0.9,0,1.2c0.4,0.3,0.8,0.3,1.2-0.2l3.5-3.9c0.5-0.5,0.4-0.9,0-1.2   c-0.4-0.3-0.8-0.3-1.2,0.2L-396.9,553.6z" length="42"/>
		<path d="M-386.9,554.5c0.8,0.9,1.4,0.7,2,0.5l0.7,0.8l-7.3,6.4l-1-1.2l5.6-4.9l-0.8-0.9L-386.9,554.5z" length="25"/>
		<path d="M-383.2,561c1.4-0.9,2.5-0.8,3.4,0.5c0.8,1.2,0.5,2.4-0.7,3.3l-0.2,0.1l-0.8-1.2l0.3-0.2c0.6-0.4,0.6-0.8,0.3-1.2   c-0.3-0.4-0.7-0.6-1.5,0l-1.5,1c0.6-0.1,1.1,0.1,1.5,0.7c0.6,0.9,0.3,1.9-0.9,2.7l-1.5,1c-1.3,0.9-2.5,0.7-3.3-0.5   c-0.8-1.2-0.6-2.4,0.7-3.3L-383.2,561z M-385.1,564.1l-1.5,1c-0.6,0.4-0.6,0.8-0.3,1.2c0.3,0.4,0.7,0.5,1.2,0.1l1.5-1   c0.6-0.4,0.6-0.8,0.4-1.2C-384.1,563.8-384.5,563.7-385.1,564.1z" length="44"/>
	</g>
	<g id="text-bottom">
		<path d="M-497.2,600.6A59.8,59.8 0,1,1 -377.59999999999997,600.6A59.8,59.8 0,1,1 -497.2,600.6" length="376"/>
		<path d="M-372.8,584.6c0.3,1-0.4,2.1-1.4,2.3c-1,0.3-2.1-0.4-2.3-1.4c-0.3-1,0.4-2.1,1.4-2.3C-374.1,582.9-373,583.5-372.8,584.6z" length="13"/>
		<path d="M-370.3,599.7l-1.3,0.1c-1.6,0.1-2.4-0.6-2.5-2.2l0-0.7l-3.7,0.2l-0.1-1.5l9.7-0.5l0.1,2.3   C-367.9,598.9-368.7,599.6-370.3,599.7z M-369.4,596.7l-3.3,0.2l0,0.7c0,0.5,0.3,0.7,1,0.7l1.5-0.1c0.7,0,0.9-0.3,0.9-0.8   L-369.4,596.7z" length="36"/>
		<path d="M-377.9,606c0.3-0.1,0.4-0.1,1.2,0l1.5,0.1c0.9,0.1,1.3-0.2,1.3-0.9l0-0.5l-4-0.3l0.1-1.5l9.7,0.7l-0.2,2.3   c-0.1,1.6-0.9,2.2-2.4,2.1l-0.8-0.1c-1-0.1-1.6-0.4-1.9-1.2c-0.4,0.7-1.1,0.9-2.1,0.9l-1.5-0.1c-0.5,0-0.8,0-1.2,0.1L-377.9,606z    M-369.4,605l-3-0.2l0,0.6c0,0.6,0.2,0.9,1,1l1,0.1c0.7,0.1,1-0.2,1.1-0.7L-369.4,605z" length="45"/>
		<path d="M-373.2,612.9l-0.4,2.1l-1.4-0.3l0.4-2.1l-2.8-0.6l-0.5,2.6l-1.4-0.3l0.8-4.1l9.6,1.9l-0.8,4.1l-1.4-0.3l0.5-2.6   L-373.2,612.9z" length="38"/>
		<path d="M-378.3,621.2l6.2,3.3l-0.7,2l-9.2-3.2l0.5-1.4l6.6,2.3l-6.3-3.3l0.5-1.4l6.9,1.2l-6.5-2.3l0.4-1.3l9.2,3.2l-0.7,2   L-378.3,621.2z" length="71"/>
		<path d="M-374.6,630.3l-0.7,1.4l-8.8-4.3l0.7-1.4L-374.6,630.3z" length="23"/>
		<path d="M-377.9,636.5l-6.4-4c-0.6-0.4-1-0.2-1.2,0.2c-0.3,0.4-0.2,0.8,0.4,1.2l6.4,4l-0.8,1.2l-6.3-3.9c-1.3-0.8-1.7-2-0.9-3.2   s2-1.5,3.3-0.7l6.3,3.9L-377.9,636.5z" length="44"/>
		<path d="M-389.4,640.7l4.6,5.2l-1.4,1.6l-7.5-6.3l0.9-1.1l5.4,4.5l-4.7-5.3l0.9-1.1l6,3.5l-5.3-4.4l0.9-1l7.5,6.3l-1.4,1.6   L-389.4,640.7z" length="70"/>
		<path d="M-399.7,650.5l3.3,6.2l-1.7,1.3l-5.9-7.8l1.2-0.9l4.2,5.6l-3.4-6.2l1.2-0.9l5.1,4.8l-4.2-5.5l1.1-0.8l5.9,7.8l-1.7,1.3   L-399.7,650.5z" length="71"/>
		<path d="M-402.8,658.2c0.8,1.4,0.5,2.5-0.8,3.3s-2.5,0.3-3.2-1l-2.5-4.4c-0.8-1.4-0.5-2.5,0.8-3.3c1.3-0.7,2.5-0.3,3.2,1   L-402.8,658.2z M-406.6,654.4c-0.3-0.6-0.7-0.7-1.2-0.5c-0.4,0.2-0.6,0.6-0.2,1.2l2.6,4.6c0.3,0.6,0.7,0.7,1.2,0.5   c0.4-0.2,0.6-0.6,0.2-1.2L-406.6,654.4z" length="42"/>
		<path d="M-409.5,664.2l-2.2,0.9c-1.4,0.6-2.4,0.1-3-1.4l-1.8-4.6c-0.6-1.4-0.2-2.5,1.2-3.1l2.2-0.9L-409.5,664.2z M-411.4,663.5   l-2.6-6.5l-0.8,0.3c-0.5,0.2-0.6,0.5-0.4,1.2l1.9,4.7c0.3,0.6,0.6,0.8,1.1,0.6L-411.4,663.5z" length="44"/>
		<path d="M-420.3,663.7l-2,0.5l-0.4-1.3l2-0.5l-0.7-2.8l-2.6,0.7l-0.4-1.3l4-1.1l2.5,9.4l-4,1.1l-0.4-1.3l2.6-0.7L-420.3,663.7z" length="38"/>
		<path d="M-430.3,659.9c0.1,0.2,0.2,0.4,0.3,1.2l0.2,1.5c0.1,0.9,0.5,1.2,1.2,1.1l0.5-0.1l-0.5-3.9l1.5-0.2l1.3,9.7l-2.3,0.3   c-1.6,0.2-2.4-0.4-2.6-1.9l-0.1-0.8c-0.1-1,0.1-1.7,0.7-2.1c-0.8-0.2-1.2-0.9-1.3-1.9l-0.2-1.5c-0.1-0.5-0.1-0.8-0.3-1.2   L-430.3,659.9z M-427.5,668l-0.4-3l-0.6,0.1c-0.6,0.1-0.9,0.4-0.8,1.1l0.1,1c0.1,0.7,0.4,1,0.9,0.9L-427.5,668z" length="45"/>
		<path d="M-435.9,667.4l-0.1-7.1l1.4,0l0.1,9.8l-1.9,0l-1.6-5.8l0,5.8l-1.4,0l-0.1-9.8l1.6,0L-435.9,667.4z" length="53"/>
		<path d="M-450.4,661.8l-2.5,6.6l-2.1-0.4l2-9.5l1.4,0.3l-1.4,6.8l2.5-6.6l1.4,0.3l-0.3,7l1.4-6.7l1.3,0.3l-2,9.5l-2.1-0.4   L-450.4,661.8z" length="71"/>
		<path d="M-459.1,662.3l-2-0.7l0.5-1.3l2,0.7l1-2.7l-2.5-0.9l0.5-1.3l3.9,1.4l-3.3,9.2l-3.9-1.4l0.5-1.3l2.5,0.9L-459.1,662.3z" length="38"/>
		<path d="M-465.2,653.5c0,0.3-0.1,0.4-0.4,1.1l-0.7,1.4c-0.4,0.8-0.3,1.2,0.3,1.6l0.5,0.2l1.8-3.5l1.4,0.7l-4.4,8.7l-2.1-1   c-1.4-0.7-1.7-1.7-1-3l0.3-0.7c0.5-0.9,1-1.3,1.8-1.3c-0.5-0.6-0.4-1.4,0-2.3l0.7-1.3c0.2-0.4,0.4-0.7,0.4-1.1L-465.2,653.5z    M-467.5,661.7l1.3-2.7l-0.5-0.3c-0.5-0.3-0.9-0.2-1.3,0.5l-0.4,0.9c-0.3,0.6-0.2,1,0.2,1.2L-467.5,661.7z" length="45"/>
		<path d="M-474.7,651.9l0.7-1.1c0.9-1.3,2-1.6,3.3-0.8c1.2,0.8,1.4,2,0.5,3.3l-2.8,4.2c-0.9,1.3-2,1.6-3.3,0.8   c-1.2-0.8-1.4-2-0.5-3.3l0.5-0.8l1.2,0.8l-0.6,0.9c-0.4,0.6-0.3,1,0.1,1.2s0.8,0.2,1.2-0.4l2.9-4.4c0.4-0.6,0.3-1-0.1-1.2   c-0.4-0.3-0.8-0.2-1.2,0.3l-0.8,1.2L-474.7,651.9z" length="39"/>
		<path d="M-476.1,646.2l1.2,1l-6.4,7.3l-1.2-1l2.7-3.1l-1.3-1.1l-2.8,3.1l-1.2-1l6.4-7.3l1.2,1l-2.8,3.1l1.3,1.1L-476.1,646.2z" length="46"/>
		<path d="M-484,638.1l1,1.2l-1.2,1.4l1.2,1.4l1.5-1l0.9,1.1l-8.3,5.3l-1.5-1.7L-484,638.1z M-484,642.8l-1-1.1l-3.2,3.8L-484,642.8z   " length="43"/>
		<path d="M-492.3,638.9l5.8-4l0.8,1.1l-8.1,5.5l-1.1-1.6l4-4.6l-4.8,3.3l-0.8-1.1l8.1-5.5l0.9,1.3L-492.3,638.9z" length="53"/>
		<path d="M-498.6,633.8l-1.1-2.2c-0.7-1.4-0.3-2.4,1.1-3.1l4.4-2.2c1.4-0.7,2.5-0.4,3.2,1l1.1,2.2L-498.6,633.8z M-498,631.8   l6.2-3.1l-0.4-0.8c-0.2-0.4-0.6-0.6-1.2-0.3l-4.5,2.3c-0.6,0.3-0.7,0.7-0.5,1.1L-498,631.8z" length="44"/>
		<path d="M-502.2,625.9l-0.5-1.4l9.1-3.5l0.5,1.4L-502.2,625.9z" length="23"/>
		<path d="M-504.7,618.7c-0.4-1.4,0.3-2.4,1.8-2.8l0.3-0.1l0.4,1.4l-0.4,0.1c-0.7,0.2-0.9,0.5-0.7,1c0.1,0.5,0.5,0.7,1.1,0.5   c1.9-0.5,1.5-3.5,4.2-4.2c1.5-0.4,2.6,0.1,3,1.6c0.4,1.5-0.3,2.4-1.8,2.8l-0.6,0.2l-0.4-1.4l0.7-0.2c0.7-0.2,0.8-0.5,0.7-1   c-0.1-0.5-0.4-0.7-1.1-0.5c-1.9,0.5-1.5,3.5-4.2,4.2C-503.3,620.6-504.3,620.1-504.7,618.7z" length="39"/>
		<path d="M-502.2,610.4l-0.3-2.1l1.4-0.2l0.3,2.1l2.8-0.4l-0.4-2.6l1.4-0.2l0.6,4.1l-9.7,1.4l-0.6-4.1l1.4-0.2l0.4,2.6L-502.2,610.4   z" length="38"/>
		<path d="M-504,597.4c0.1-1.1,1-1.9,2-1.8c1.1,0.1,1.9,1,1.8,2c-0.1,1.1-1,1.9-2,1.8C-503.2,599.3-504,598.4-504,597.4z" length="12"/>
	</g>
	<g id="fox">
		<path d="M-441.1,587.7c-0.3,0.7-1.7,0.8-3.1,0.2c-1.4-0.6-2.3-1.7-2-2.4c0.3-0.7,1.7-0.8,3.1-0.2   C-441.7,585.9-440.8,586.9-441.1,587.7z" length="14"/>
		<path d="M-431.5,598.8c-2,2.2-4.2-0.8-4.1-1.9h-0.2c0.1,1.1-2,4.1-4.1,1.9" length="12"/>
		<path d="M-430.2,587.7c0.3,0.7,1.7,0.8,3.1,0.2c1.4-0.6,2.3-1.7,2-2.4c-0.3-0.7-1.7-0.8-3.1-0.2   C-429.6,585.9-430.5,586.9-430.2,587.7z" length="14"/>
		<g>
			<path d="M-442.7,584.4c-1.9-0.8-3.8-0.5-4.3,0.7c-0.2,0.4-0.2,0.9,0,1.4c0.3,0.9,1.3,1.7,2.5,2.2    c0.7,0.3,1.5,0.5,2.1,0.5c1.1,0,1.9-0.4,2.2-1.2C-439.7,586.8-440.7,585.2-442.7,584.4z" length="20"/>
			<path d="M-424.2,585.1c-0.5-1.2-2.4-1.5-4.4-0.7c-2,0.9-3,2.4-2.5,3.6c0.3,0.7,1.1,1.2,2.2,1.2l0,0    c0.7,0,1.4-0.2,2.1-0.5c1.2-0.5,2.1-1.3,2.5-2.2C-424.1,586-424,585.5-424.2,585.1z" length="20"/>
		</g>
		<path d="M-419.6,607.5v-10.2v-5.5c4-1.5,8.5-2.3,14.2-2.3c0,0,0,0,0,0c0.5,0,1-0.4,1-0.9c0-0.3-0.2-0.6-0.4-0.8   c-7.7-7.8-9.2-18.2-9.2-31.5c0-0.4-0.2-0.7-0.6-0.9c-0.4-0.1-0.8-0.1-1,0.2c-3,3-6.1,5.4-9,7.1c0,0,0,0,0,0c0,0-0.1,0-0.1,0   c-3.7,2.1-7.2,3.1-10.8,3.1h0c-3.4,0-6.9-1-10.4-2.9c-3.1-1.7-6.3-4.2-9.5-7.4c-0.3-0.3-0.7-0.3-1-0.2c-0.4,0.1-0.6,0.5-0.6,0.9   c0,13.4-1.6,23.9-9.4,31.6c-0.4,0.4-0.4,0.9,0,1.3c0.2,0.2,0.4,0.3,0.7,0.3c5.6,0,10.2,0.7,14.2,2.3v5.5v26   c-10.9,2.8-16.3,14.4-18.7,21.2c-0.1,0.4,0,0.8,0.4,1.1c0.2,0.1,0.3,0.2,0.5,0.2c0.2,0,0.4-0.1,0.6-0.2c5.5-4.9,11.1-5.7,20.9-5.7   h1.6h18.7c7,0,23.3-1.6,23.3-16.1C-404.4,615-411.2,608-419.6,607.5z M-407.7,587.7C-407.7,587.7-407.7,587.7-407.7,587.7   c-5.1,0.2-9.4,1-13.2,2.6c0,0,0,0,0,0c-4.1,1.7-7.8,4.2-11.2,7.8c0,0,0,0-0.1,0c-0.5,0.6-0.9,0.5-1.2,0.4c-0.7-0.3-1.2-1.1-1.2-1.5   c0.3-9.4,1.5-18.4,5.3-25.4c9,2.6,12.2,6.1,16.9,11.2C-411.1,584.3-409.5,585.9-407.7,587.7z M-431,614c-0.4-0.3-1-0.2-1.3,0.2   c-0.3,0.4-0.2,1,0.2,1.3c2.2,1.6,2.1,3.8,2.1,6.9v0.1c-0.9,0.1-1.8,0.2-2.8,0.2h-8.6l0-0.2c0-3.1-0.1-5.3,2.1-6.9   c0.4-0.3,0.5-0.9,0.2-1.3c-0.3-0.4-0.9-0.5-1.3-0.2c-2.9,2.2-2.9,5.2-2.9,8.4l0,0.2h-3.1h-0.5c-1,0-2,0.1-3,0.2v0v-2.2V604v-5   c4.7,2.8,9.2,6.1,13.4,12c0.2,0.2,0.5,0.4,0.8,0.4c0.3,0,0.6-0.1,0.8-0.4c4.2-5.9,8.7-9.2,13.4-12v5v4.4v1v3.9   c0,4.8-2.2,7.8-6.6,8.9C-428.1,619-428.1,616.1-431,614z M-435.7,608.9c-4.4-6-9.2-9.2-14.2-12.1v-4.2c5.1,2.3,9.3,6.2,13.4,12   c0.2,0.2,0.5,0.4,0.8,0.4l0,0c0.3,0,0.6-0.1,0.8-0.4c4-5.8,8.3-9.6,13.4-11.9v4.2C-426.4,599.7-431.2,602.9-435.7,608.9z    M-423.9,564.4c2.4-1.8,5.2-3.4,7.8-5.9c0.1,7.6,0.8,15.1,3.8,21.8c-4.1-4.4-7.7-7.7-16.1-10.3C-427,567.8-425.6,565.7-423.9,564.4   z M-435.7,567.7L-435.7,567.7c2.5,0,5-0.5,7.5-1.4c-0.9,1.1-1.7,2.4-2.4,3.7c-2.7,4.7-4.2,10.4-5.1,16.4c-0.8-6-2.3-11.7-5.1-16.4   c0,0,0-0.1-0.1-0.1c-0.7-1.1-1.4-2.4-2.3-3.6C-440.6,567.3-438.1,567.7-435.7,567.7z M-455.3,558.5c2.8,2.6,5.7,4.3,8.2,6.1   c1.9,1.4,3,3.6,4.1,5.4c-8.4,2.5-12,5.9-16.1,10.3C-456.1,573.6-455.4,566-455.3,558.5z M-463.6,587.7L-463.6,587.7   c1.8-1.8,3.3-3.4,4.7-4.9c4.7-5.1,7.9-8.5,16.9-11.2c3.8,7,5,16.1,5.3,25.4c-0.1,0.4-0.5,1.2-1.2,1.5c-0.3,0.1-0.7,0.2-1.2-0.4   c0,0,0,0,0,0c-3.3-3.5-6.9-6.1-11-7.7v0c-0.1,0-0.2-0.1-0.3-0.1C-454.2,588.7-458.4,587.9-463.6,587.7z M-446.3,637.9h-1.6   c-8.6,0-14.4,0.7-19.5,4.1c2.7-6.6,7.9-15.2,16.9-17.1c1.2-0.3,2.4-0.4,3.7-0.4h0.5c1.6,0,2.8,1.3,2.8,2.9c0,1.6-1.3,2.9-2.8,2.9   c-0.5,0-0.9,0.4-0.9,0.9s0.4,0.9,0.9,0.9c1.6,0,2.8,1.3,2.8,2.9C-443.5,636.6-444.8,637.9-446.3,637.9z M-427.7,637.9h-14.9   c0,0,0.1-0.1,0.1-0.1c0.1-0.1,0.1-0.2,0.2-0.3c0.1-0.2,0.2-0.3,0.3-0.5c0-0.1,0.1-0.2,0.1-0.3c0.1-0.2,0.1-0.4,0.2-0.6   c0-0.1,0-0.2,0.1-0.3c0.1-0.3,0.1-0.6,0.1-0.9c0-1.6-0.7-2.9-1.9-3.8c1.2-0.9,1.9-2.3,1.9-3.8c0-1.1-0.4-2.1-1-2.9h9.8   c10.9,0,13.1-6.1,13.1-11.3v-3.9c7.4,0.5,13.3,6.7,13.3,14.3C-406.3,636.5-421.2,637.9-427.7,637.9z" length="331"/>
	</g>
</svg>