<svg class="obturateur" xmlns="http://www.w3.org/2000/svg" viewBox="0 0 200 200">
	<path d="M10,100A90,90 0,1,1 190,100A90,90 0,1,1 10,100" length="566"/>
	<path d="M14.260000000000005,100A85.74,85.74 0,1,1 185.74,100A85.74,85.74 0,1,1 14.260000000000005,100" length="539"/>
	<path d="M27.052999999999997,100A72.947,72.947 0,1,1 172.947,100A72.947,72.947 0,1,1 27.052999999999997,100" length="459"/>
	<path d="M60.26,100A39.74,39.74 0,1,1 139.74,100A39.74,39.74 0,1,1 60.26,100" length="250"/>
	<path d="M34.042,131.189L67.047,77.781" length="63"/>
	<path d="M31.306,75.416L92.41,60.987" length="63"/>
	<path d="M68.81,34.042L122.219,67.046" length="63"/>
	<path d="M124.584,31.305L139.013,92.409" length="63"/>
	<path d="M165.957,68.809L132.953,122.219" length="63"/>
	<path d="M168.693,124.584L107.59,139.012" length="63"/>
	<path d="M131.19,165.957L77.781,132.953" length="63"/>
	<path d="M75.417,168.693L60.987,107.59" length="63"/>
</svg>